<?xml version="1.0" encoding="utf-8"?>
<!-- Generator: Adobe Illustrator 17.1.0, SVG Export Plug-In . SVG Version: 6.00 Build 0)  -->
<!DOCTYPE svg PUBLIC "-//W3C//DTD SVG 1.1//EN" "http://www.w3.org/Graphics/SVG/1.1/DTD/svg11.dtd">
<svg version="1.1" id="Layer_1" xmlns="http://www.w3.org/2000/svg" xmlns:xlink="http://www.w3.org/1999/xlink" x="0px" y="0px"
	 viewBox="0 0 504 216" enable-background="new 0 0 504 216" xml:space="preserve">
<g>
	<g>
		<path fill="#BCBEC0" d="M62.6,139.9c6.9,0,12.5,5.6,12.5,12.5c0,6.9-5.6,12.5-12.5,12.5c-6.9,0-12.5-5.5-12.5-12.5
			C50.2,145.5,55.7,139.9,62.6,139.9z M62.6,161.3c4.9,0,8.9-4,8.9-8.9c0-5-4-8.9-8.9-8.9c-4.9,0-8.9,4-8.9,8.9
			C53.7,157.4,57.7,161.3,62.6,161.3z"/>
		<path fill="#BCBEC0" d="M99.1,146.6c-0.5-2.2-2.8-3.1-4.9-3.1c-1.6,0-3.4,0.6-4.4,1.8c-0.5,0.6-0.7,1.4-0.6,2.2
			c0.2,2.5,2.9,2.8,5.5,3c3.3,0.4,7.4,1.3,8.3,5.1c0.1,0.5,0.2,1.1,0.2,1.6c0,4.6-4.6,7.3-8.9,7.3c-3.7,0-8.2-2.2-8.7-6.5l0-0.7
			l3.5-0.1l0,0.5v-0.1c0.2,2.2,3,3.4,5.2,3.4c2.6,0,5.4-1.4,5.4-3.9c0-0.2,0-0.5-0.1-0.8c-0.4-1.8-2.9-2.1-5.3-2.4
			c-3.7-0.4-8.1-1.2-8.5-6.2v0c-0.1-1.6,0.3-3.2,1.3-4.6c1.6-2.1,4.5-3.2,7.3-3.2c3.7,0,7.6,1.9,8.2,6.3L99.1,146.6z"/>
		<path fill="#BCBEC0" d="M143.6,143.4h-4.5v17.8h4.5v3.2h-12.4v-3.2h4.5v-17.8h-4.5v-3.2h12.4V143.4z"/>
		<path fill="#BCBEC0" d="M161.6,164.4v-21h-7.3v-3.3h18v3.3h-7.3v21H161.6z"/>
		<path fill="#BCBEC0" d="M211.2,146.6c-0.5-2.2-2.8-3.1-4.9-3.1c-1.6,0-3.4,0.6-4.4,1.8c-0.5,0.6-0.7,1.4-0.6,2.2
			c0.2,2.5,2.9,2.8,5.5,3c3.3,0.4,7.4,1.3,8.3,5.1c0.1,0.5,0.2,1.1,0.2,1.6c0,4.6-4.6,7.3-8.9,7.3c-3.7,0-8.2-2.2-8.7-6.5l0-0.7
			l3.5-0.1l0,0.5v-0.1c0.2,2.2,3,3.4,5.2,3.4c2.6,0,5.4-1.4,5.4-3.9c0-0.2,0-0.5-0.1-0.8c-0.4-1.8-2.9-2.1-5.3-2.4
			c-3.7-0.4-8.1-1.2-8.5-6.2v0c-0.1-1.6,0.3-3.2,1.3-4.6c1.6-2.1,4.5-3.2,7.3-3.2c3.7,0,7.6,1.9,8.2,6.3L211.2,146.6z"/>
		<path fill="#BCBEC0" d="M237.9,139.9c6.9,0,12.5,5.6,12.5,12.5c0,6.9-5.6,12.5-12.5,12.5c-6.9,0-12.5-5.5-12.5-12.5
			C225.4,145.5,231,139.9,237.9,139.9z M237.9,161.3c4.9,0,8.9-4,8.9-8.9c0-5-4-8.9-8.9-8.9c-4.9,0-8.9,4-8.9,8.9
			C229,157.4,233,161.3,237.9,161.3z"/>
		<path fill="#BCBEC0" d="M265.9,161h11.3v3.5h-14.8v-24.1h3.5V161z"/>
		<path fill="#BCBEC0" d="M287.5,157.2v-17.1h3.5v17.1c0,2.6,2.9,4,5.4,4c2.5,0,5.4-1.3,5.4-4v-17.1h3.5v17.1c0,4.9-4.7,7.4-8.9,7.4
			C292.2,164.7,287.5,162.1,287.5,157.2z"/>
		<path fill="#BCBEC0" d="M323,164.4v-21h-7.3v-3.3h18v3.3h-7.3v21H323z"/>
		<path fill="#BCBEC0" d="M356.9,143.4h-2.5v17.8h2.5v3.2H350v-3.2h2.5v-17.8H350v-3.2h6.9V143.4z"/>
		<path fill="#BCBEC0" d="M380,139.9c6.9,0,12.5,5.6,12.5,12.5c0,6.9-5.6,12.5-12.5,12.5c-6.9,0-12.5-5.5-12.5-12.5
			C367.5,145.5,373,139.9,380,139.9z M380,161.3c4.9,0,8.9-4,8.9-8.9c0-5-4-8.9-8.9-8.9c-4.9,0-8.9,4-8.9,8.9
			C371.1,157.4,375,161.3,380,161.3z"/>
		<path fill="#BCBEC0" d="M404.4,164.4v-24.1h2.7l11.7,16.9v-16.9h3.4v24.1h-2.7l-11.6-16.8v16.8H404.4z"/>
		<path fill="#BCBEC0" d="M447.8,146.6c-0.5-2.2-2.8-3.1-4.9-3.1c-1.6,0-3.4,0.6-4.4,1.8c-0.5,0.6-0.7,1.4-0.6,2.2
			c0.2,2.5,2.9,2.8,5.5,3c3.3,0.4,7.4,1.3,8.3,5.1c0.1,0.5,0.2,1.1,0.2,1.6c0,4.6-4.6,7.3-8.9,7.3c-3.7,0-8.2-2.2-8.7-6.5l0-0.7
			l3.5-0.1l0,0.5v-0.1c0.2,2.2,3,3.4,5.2,3.4c2.6,0,5.4-1.4,5.4-3.9c0-0.2,0-0.5-0.1-0.8c-0.4-1.8-2.9-2.1-5.3-2.4
			c-3.7-0.4-8.1-1.2-8.5-6.2v0c-0.1-1.6,0.3-3.2,1.3-4.6c1.6-2.1,4.5-3.2,7.3-3.2c3.7,0,7.6,1.9,8.2,6.3L447.8,146.6z"/>
	</g>
	<g>
		<g>
			<path fill="#022439" d="M196.8,8.9H59.7C33.5,8.9,13.7,35,13.7,64.8c0,29.2,19.8,55.9,45.9,55.9h137.2
				c26.2-0.3,45.9-26.7,45.9-55.9C242.7,35,223,8.9,196.8,8.9z M196.8,102.3H59.7c-16.4,0-28.1-18.1-28.1-37.6
				c0-19.8,11.7-37.6,28.1-37.6h137.2c16.4,0,28.1,17.8,28.1,37.6C224.9,84.3,213.3,102.3,196.8,102.3z"/>
			<path fill="#BCBEC0" d="M195.1,54.9H61.4c-5.5,0-9.9,4.4-9.9,9.9s4.4,9.9,9.9,9.9h133.7c5.5,0,9.9-4.4,9.9-9.9
				S200.6,54.9,195.1,54.9z"/>
		</g>
		<path fill="#022439" d="M455.5,55L455.5,55l-162.7,0.3c-9.6,0-13-7.5-13-13.5c0-3.5,1.2-6.9,3.2-9.2c2.3-2.5,5.6-4.3,9.8-4.3v0
			h97.7v0h64.6c1.1,0,2-0.9,2-2c0-1.1-0.9-2-2-2h-64.6v-3.9h47.6c1.1,0,2-0.9,2-2c0-1.1-0.9-2-2-2h-47.6v-3.9h30.7c1.1,0,2-0.9,2-2
			s-0.9-2-2-2h-44.8v0l-83.6,0.2v0c-9.8,0-18.5,3.7-24.5,10.5c-5.3,6-8.2,13.9-8.2,22.3c0,16.3,11.2,32.7,32.7,32.7h162.7
			c9.6,0,13,7.2,13,13.2c0,3.5-1.2,6.9-3.2,9.2c-2.3,2.5-5.6,4.3-9.8,4.3H260.1v19.5l195.4-0.3v0c9.8,0,18.5-3.7,24.5-10.5
			c5.3-6,8.2-13.9,8.2-22.3C488.3,71.5,477,55,455.5,55z"/>
	</g>
	
		<text transform="matrix(1 0 0 1 133.1317 201.1468)" fill="#BCBEC0" font-family="'K2D-ExtraLight'" font-size="21.278" letter-spacing="6"> Work Digitally</text>
</g>
</svg>
