<?xml version="1.0" encoding="utf-8"?>
<!-- Generator: Adobe Illustrator 27.5.0, SVG Export Plug-In . SVG Version: 6.00 Build 0)  -->
<svg version="1.1" id="_x3C_Layer_x3E_" xmlns="http://www.w3.org/2000/svg" xmlns:xlink="http://www.w3.org/1999/xlink" x="0px"
	 y="0px" viewBox="0 0 2760 1840" style="enable-background:new 0 0 2760 1840;" xml:space="preserve">
<rect style="fill:#FFFFFF;" width="2760" height="1840"/>
<g>
	<rect x="118.192" y="211.847" style="fill:#D2E0FF;" width="2554.115" height="1383.065"/>
	<g>
		<path style="fill:#77A4E5;" d="M1140.751,656.275H974.769c-7.619,0-13.854-6.234-13.854-13.854V482.22
			c0-7.619,6.234-13.853,13.854-13.853h165.982c7.619,0,13.854,6.234,13.854,13.853v160.202
			C1154.604,650.041,1148.37,656.275,1140.751,656.275z"/>
		<path style="fill:#DFEBFD;" d="M1133.561,648.135H981.96c-6.96,0-12.653-5.694-12.653-12.653V489.16
			c0-6.96,5.693-12.654,12.653-12.654h151.601c6.959,0,12.653,5.694,12.653,12.654v146.321
			C1146.214,642.44,1140.52,648.135,1133.561,648.135z"/>
		<g>
			<g>
				<path style="fill:#77A4E5;" d="M1053.748,493.656c0-2.216,1.796-4.012,4.012-4.012s4.012,1.796,4.012,4.012
					c0,2.217-1.796,4.013-4.012,4.013S1053.748,495.873,1053.748,493.656z"/>
				<path style="fill:#77A4E5;" d="M1086.123,499.327c1.076-1.935,3.519-2.634,5.455-1.558c1.938,1.076,2.635,3.52,1.558,5.456
					c-1.076,1.938-3.518,2.634-5.455,1.558C1085.744,503.707,1085.047,501.265,1086.123,499.327z"/>
				<path style="fill:#77A4E5;" d="M1113.858,521.363c1.862-1.201,4.346-0.666,5.547,1.196c1.201,1.862,0.666,4.346-1.196,5.547
					c-1.862,1.201-4.346,0.665-5.546-1.196C1111.461,525.048,1111.996,522.565,1113.858,521.363z"/>
				<path style="fill:#77A4E5;" d="M1127.598,555.47c2.215,0,4.012,1.796,4.012,4.013c0,2.215-1.797,4.012-4.012,4.012
					c-2.217,0-4.013-1.797-4.013-4.012C1123.585,557.266,1125.381,555.47,1127.598,555.47z"/>
				<path style="fill:#77A4E5;" d="M1120.582,595.052c1.567,1.566,1.567,4.106,0,5.673c-1.566,1.567-4.106,1.567-5.673,0
					c-1.567-1.566-1.567-4.106,0-5.673C1116.476,593.484,1119.016,593.484,1120.582,595.052z"/>
				<path style="fill:#77A4E5;" d="M1095.388,620.312c1.566,1.567,1.566,4.107,0,5.674c-1.567,1.567-4.106,1.567-5.674,0
					c-1.566-1.567-1.566-4.107,0-5.674C1091.281,618.745,1093.82,618.745,1095.388,620.312z"/>
				<path style="fill:#77A4E5;" d="M1053.748,633.332c0-2.217,1.796-4.013,4.012-4.013s4.012,1.796,4.012,4.013
					c0,2.216-1.796,4.013-4.012,4.013S1053.748,635.548,1053.748,633.332z"/>
			</g>
			<g>
				<path style="fill:#77A4E5;" d="M1029.27,499.327c-1.076-1.935-3.519-2.634-5.456-1.558c-1.936,1.076-2.635,3.52-1.559,5.456
					c1.076,1.938,3.521,2.634,5.457,1.558S1030.346,501.265,1029.27,499.327z"/>
				<path style="fill:#77A4E5;" d="M1001.533,521.363c-1.861-1.201-4.345-0.666-5.547,1.196c-1.201,1.862-0.665,4.346,1.196,5.547
					c1.862,1.201,4.345,0.665,5.548-1.196C1003.93,525.048,1003.394,522.565,1001.533,521.363z"/>
				<path style="fill:#77A4E5;" d="M987.794,555.47c-2.215,0-4.012,1.796-4.012,4.013c0,2.215,1.797,4.012,4.012,4.012
					c2.216,0,4.013-1.797,4.013-4.012C991.807,557.266,990.01,555.47,987.794,555.47z"/>
				<path style="fill:#77A4E5;" d="M994.81,595.052c-1.567,1.566-1.567,4.106,0,5.673c1.566,1.567,4.107,1.567,5.675,0
					c1.566-1.566,1.566-4.106,0-5.673C998.917,593.484,996.376,593.484,994.81,595.052z"/>
				<path style="fill:#77A4E5;" d="M1020.004,620.312c-1.566,1.567-1.566,4.107,0,5.674c1.567,1.567,4.107,1.567,5.674,0
					c1.567-1.567,1.567-4.107,0-5.674C1024.111,618.745,1021.571,618.745,1020.004,620.312z"/>
			</g>
		</g>
		<g>
			<path style="fill:#77A4E5;" d="M1056.678,559.482c0-2.217,1.797-4.013,4.012-4.013c2.217,0,4.013,1.796,4.013,4.013
				c0,2.215-1.796,4.012-4.013,4.012C1058.475,563.494,1056.678,561.697,1056.678,559.482z"/>
			<g>
				<rect x="1060.143" y="509.358" style="fill:#77A4E5;" width="1.096" height="50.124"/>
			</g>
			<g>
				
					<rect x="1056.58" y="547.338" transform="matrix(0.7866 -0.6175 0.6175 0.7866 -109.8849 780.0415)" style="fill:#77A4E5;" width="33.782" height="3.286"/>
			</g>
		</g>
	</g>
	<rect x="121.959" y="1254.927" style="fill:#AEC3FF;" width="2550.348" height="442.801"/>
	<rect x="623.738" y="171.729" style="opacity:0.5;fill:#AEC3FF;" width="163.188" height="1083.198"/>
	<rect x="1372.449" y="171.729" style="opacity:0.5;fill:#AEC3FF;" width="163.189" height="1093.454"/>
	<rect x="2109.363" y="171.729" style="opacity:0.5;fill:#AEC3FF;" width="163.189" height="1093.454"/>
	<g>
		<rect x="1289.689" y="271.578" style="fill:#2B478B;" width="14.517" height="107.576"/>
		<rect x="1659.891" y="271.578" style="fill:#2B478B;" width="14.518" height="107.576"/>
		<rect x="1225.274" y="357.716" style="fill:#EE9849;" width="505.19" height="148.547"/>
		<g>
			<rect x="1259.685" y="385.542" style="fill:#FFB77B;" width="208.088" height="8.711"/>
			<rect x="1259.685" y="409.254" style="fill:#FFB77B;" width="128.725" height="8.711"/>
			<rect x="1420.106" y="409.254" style="fill:#FFB77B;" width="128.724" height="8.711"/>
			<rect x="1502.131" y="385.542" style="fill:#FFB77B;" width="197" height="8.711"/>
		</g>
		<g>
			<rect x="1259.685" y="443.284" style="fill:#F9DDBF;" width="208.088" height="8.711"/>
			<rect x="1259.685" y="466.997" style="fill:#F9DDBF;" width="128.725" height="8.71"/>
			<rect x="1420.106" y="466.997" style="fill:#F9DDBF;" width="128.724" height="8.71"/>
			<rect x="1502.131" y="443.284" style="fill:#F9DDBF;" width="197" height="8.711"/>
		</g>
		<g>
			<path style="fill:#2B478B;" d="M1734.851,510.648H1220.89V353.332h513.961V510.648z M1229.659,501.879h496.421V362.102h-496.421
				V501.879z"/>
		</g>
	</g>
	<g>
		<rect x="1967.24" y="271.578" style="fill:#2B478B;" width="14.518" height="86.138"/>
		<rect x="2337.441" y="271.578" style="fill:#2B478B;" width="14.518" height="86.138"/>
		<rect x="1902.826" y="357.716" style="fill:#8C9DF4;" width="505.191" height="101.78"/>
		<g>
			<rect x="1937.236" y="385.542" style="fill:#BDD1F9;" width="208.088" height="8.711"/>
			<rect x="1937.236" y="409.254" style="fill:#BDD1F9;" width="128.725" height="8.711"/>
			<rect x="2097.657" y="409.254" style="fill:#BDD1F9;" width="128.724" height="8.711"/>
			<rect x="2179.682" y="385.542" style="fill:#BDD1F9;" width="197" height="8.711"/>
		</g>
		<g>
			<path style="fill:#2B478B;" d="M2411.646,463.126h-512.45V354.087h512.45V463.126z M1906.455,455.866h497.933v-94.52h-497.933
				V455.866z"/>
		</g>
	</g>
	<g>
		<rect x="476.003" y="271.578" style="fill:#2B478B;" width="14.519" height="86.138"/>
		<rect x="846.205" y="271.578" style="fill:#2B478B;" width="14.518" height="86.138"/>
		<rect x="411.59" y="357.716" style="fill:#8C9DF4;" width="505.191" height="101.78"/>
		<g>
			<rect x="446" y="385.542" style="fill:#BDD1F9;" width="208.088" height="8.711"/>
			<rect x="446" y="409.254" style="fill:#BDD1F9;" width="128.724" height="8.711"/>
			<rect x="606.421" y="409.254" style="fill:#BDD1F9;" width="128.724" height="8.711"/>
			<rect x="688.445" y="385.542" style="fill:#BDD1F9;" width="197" height="8.711"/>
		</g>
		<g>
			<path style="fill:#2B478B;" d="M920.41,463.126H407.959V354.087H920.41V463.126z M415.219,455.866h497.933v-94.52H415.219
				V455.866z"/>
		</g>
	</g>
	<g>
		<path style="fill:#8C9DF4;" d="M1599.375,1401.821h-536.02v-323.58c0-64.259,52.093-116.351,116.351-116.351h419.669V1401.821z"/>
	</g>
	<g>
		<path style="fill:#6980E2;" d="M1719.141,1401.821H1183.12v-323.58c0-64.259,52.092-116.351,116.352-116.351h419.669V1401.821z"/>
	</g>
	<path style="fill:#EE9849;" d="M1303.763,955.682h-38.353c0-10.595,8.581-19.177,19.176-19.177S1303.763,945.087,1303.763,955.682z
		"/>
	<g>
		<rect x="1259.369" y="955.682" style="fill:#060633;" width="49.942" height="6.209"/>
	</g>
	<g>
		<g>
			<path style="fill:#4A67C6;" d="M1195.673,996.733h-57.367c-3.135,0-5.675-2.54-5.675-5.674V876.848
				c0-3.134,2.54-5.674,5.675-5.674h57.367c3.135,0,5.675,2.54,5.675,5.674V991.06
				C1201.348,994.193,1198.808,996.733,1195.673,996.733z"/>
		</g>
		<g>
			<path style="fill:#6980E2;" d="M1186.225,996.733h-54.44c-3.942,0-7.138-3.195-7.138-7.138V878.312
				c0-3.942,3.195-7.138,7.138-7.138h54.44c3.942,0,7.139,3.195,7.139,7.138v111.284
				C1193.363,993.538,1190.167,996.733,1186.225,996.733z"/>
		</g>
		<g>
			<path style="fill:#8C9DF4;" d="M1177.451,969.312h-36.892c-3.026,0-5.479-2.452-5.479-5.48v-76.653
				c0-3.026,2.453-5.479,5.479-5.479h36.892c3.025,0,5.479,2.453,5.479,5.479v76.653
				C1182.93,966.859,1180.477,969.312,1177.451,969.312z"/>
		</g>
		<g>
			<g>
				<rect x="1140.857" y="888.594" style="fill:#F0F5FF;" width="22.745" height="1.936"/>
			</g>
			<g>
				<rect x="1140.857" y="893.796" style="fill:#F0F5FF;" width="34.024" height="1.936"/>
			</g>
			<g>
				<rect x="1140.857" y="898.999" style="fill:#F0F5FF;" width="26.979" height="1.936"/>
			</g>
		</g>
		<g>
			<g>
				<rect x="1140.857" y="912.185" style="fill:#F0F5FF;" width="22.745" height="1.936"/>
			</g>
			<g>
				<rect x="1140.857" y="917.389" style="fill:#F0F5FF;" width="34.024" height="1.936"/>
			</g>
			<g>
				<rect x="1140.857" y="922.59" style="fill:#F0F5FF;" width="26.979" height="1.937"/>
			</g>
		</g>
		<g>
			<g>
				<rect x="1140.857" y="939.924" style="fill:#F0F5FF;" width="22.745" height="1.936"/>
			</g>
			<g>
				<rect x="1140.857" y="945.126" style="fill:#F0F5FF;" width="34.024" height="1.934"/>
			</g>
			<g>
				<rect x="1140.857" y="950.328" style="fill:#F0F5FF;" width="26.979" height="1.936"/>
			</g>
		</g>
	</g>
	<g>
		<path style="fill:#0F1F35;" d="M1504.136,1132.734h-269.88c-5.213,0-9.438-4.225-9.438-9.437l0,0c0-5.212,4.225-9.437,9.438-9.437
			h269.88c5.212,0,9.436,4.225,9.436,9.437l0,0C1513.571,1128.51,1509.348,1132.734,1504.136,1132.734z"/>
	</g>
	<g>
		<path style="fill:#0F1F35;" d="M1245.51,1237.434L1245.51,1237.434c-2.324-5.192,0.353-11.255,5.755-13.037l250.136-82.512
			c4.675-1.543,9.759,0.701,11.77,5.195l0,0c2.323,5.193-0.354,11.256-5.755,13.037l-250.136,82.512
			C1252.604,1244.172,1247.52,1241.928,1245.51,1237.434z"/>
	</g>
	<g>
		<path style="fill:#8C9DF4;" d="M2019.427,1422.18h-536.021v-341.276c0-65.729,53.284-119.013,119.013-119.013h417.008V1422.18z"/>
	</g>
	<g>
		<path style="fill:#6980E2;" d="M2139.191,1422.18h-536.02v-341.276c0-65.729,53.283-119.013,119.013-119.013h417.007V1422.18z"/>
	</g>
	<g>
		<rect x="1672.407" y="1113.861" style="fill:#0F1F35;" width="251.157" height="18.873"/>
	</g>
	<g>
		<polygon style="fill:#0F1F35;" points="1668.256,1245.344 1660.647,1227.728 1919.761,1139.169 1927.368,1156.786 		"/>
	</g>
	<g>
		<path style="fill:#8C9DF4;" d="M2428.935,1435.571h-536.021v-352.949c0-66.678,54.054-120.731,120.732-120.731h415.288V1435.571z"
			/>
	</g>
	<g>
		<path style="fill:#6980E2;" d="M2548.699,1435.571h-536.02v-352.949c0-66.678,54.054-120.731,120.731-120.731h415.288V1435.571z"
			/>
	</g>
	<g>
		<path style="fill:#0F1F35;" d="M2292.877,1132.734h-229.063c-5.211,0-9.437-4.225-9.437-9.437l0,0
			c0-5.212,4.226-9.437,9.437-9.437h229.063c5.212,0,9.437,4.225,9.437,9.437l0,0
			C2302.313,1128.51,2298.089,1132.734,2292.877,1132.734z"/>
	</g>
	<g>
		<polygon style="fill:#0F1F35;" points="2075.182,1245.344 2085.039,1224.813 2298.93,1139.169 2305.698,1156.786 		"/>
	</g>
	<path style="fill:#8C9DF4;" d="M2587.914,961.894v494.403h-307.221v-363.656c0-46.548,21.658-87.399,54.238-110.566
		c2.299-1.634,4.648-3.177,7.047-4.632c0-0.022,0.01-0.022,0.01-0.022c0.309-0.189,0.616-0.369,0.926-0.548
		c2.299-1.364,4.639-2.64,7.047-3.837h0.02c0.826-0.414,1.662-0.816,2.509-1.208c1.185-0.56,2.399-1.096,3.604-1.6
		c11.605-4.899,24.087-7.786,37.117-8.256c1.274-0.056,2.548-0.078,3.832-0.078H2587.914z"/>
	<path style="fill:#6980E2;" d="M2672.304,961.894v494.403h-271.848v-363.656c0-32.777,15.575-62.745,41.298-85.699
		c30.934-27.597,76.561-45.048,127.443-45.048H2672.304z"/>
	<g>
		<path style="fill:#EE9849;" d="M2521.098,955.682h-38.354c0-10.595,8.582-19.177,19.176-19.177
			C2512.515,936.505,2521.098,945.087,2521.098,955.682z"/>
		<path style="fill:#4A67C6;" d="M2526.646,961.891h-49.942l0,0c0-3.43,2.779-6.209,6.209-6.209h37.524
			C2523.866,955.682,2526.646,958.461,2526.646,961.891L2526.646,961.891z"/>
	</g>
	<g>
		<path style="fill:#EE9849;" d="M1490.009,955.682h-38.353c0-10.595,8.582-19.177,19.177-19.177S1490.009,945.087,1490.009,955.682
			z"/>
		<path style="fill:#4A67C6;" d="M1495.559,961.891h-49.942l0,0c0-3.43,2.78-6.209,6.208-6.209h37.525
			C1492.779,955.682,1495.559,958.461,1495.559,961.891L1495.559,961.891z"/>
	</g>
	<g>
		<path style="fill:#FFB27D;" d="M1046.089,1095.619c0,0,5.109,22.628,3.649,28.832c-1.46,6.205-17.333,16.059-23.266,14.234
			c-5.932-1.825-0.822-32.848,9.397-37.957C1046.089,1095.619,1046.089,1095.619,1046.089,1095.619z"/>
		<path style="fill:#163560;" d="M930.636,832.837c31.94-4.895,113.837,32.333,98.317,5.811
			c-11.296-19.305,0.885-38.421-8.709-72.247c-5.004-17.643-8.813-55.455-54.486-50.092c0,0-11.961-4.866-26.887,2.877
			C904.924,736.798,878.714,840.792,930.636,832.837z"/>
		<path style="fill:#AEC3FF;" d="M1000.752,851.92c0,0,30.971,13.303,33.26,26.808c3.675,21.677,14.267,91.053,14.997,124.368
			c0.647,29.595,0.729,101.282,0.729,101.282s-9.489,4.745-23.266,0l-28.811-146.716L1000.752,851.92z"/>
		<path style="fill:#94B0ED;" d="M1026.194,1059.198c0,0-4.962-81.749-0.83-121.942c3.306-32.153-36.957,61.797-34.212,78.875
			C993.898,1033.21,1026.194,1059.198,1026.194,1059.198z"/>
		<path style="fill:#233862;" d="M828.848,1434.37c0,0-13.826,12.617-11.129,21.584c2.697,8.966,15.175,14.941,16.861,25.9
			c1.687,10.958,8.431,16.936,14.501,16.936c6.07,0,28.94,0,28.94,0s4.469-7.712-6.323-10.036
			c-10.792-2.325-14.86-15.201-14.187-27.156c0.675-11.953-1.012-27.893-1.012-27.893l-22.932-5.313L828.848,1434.37z"/>
		<path style="fill:#1B3154;" d="M945.876,1439.727c0,0-4.975,53.455,1.096,56.444l77.686-0.16c0,0,0-8.966-12.478-10.957
			c-12.478-1.993-34.397-9.298-38.108-25.569C970.363,1443.213,945.876,1439.727,945.876,1439.727z"/>
		<path style="fill:#AEC3FF;" d="M886.116,909.185c0,0-1.158,16.321,0,35.906c0.771,12.982,13.902,30.372,15.766,34.673
			c4.675,10.789,9.947,12.545,9.947,12.545l40.789,9.997l14.341,3.51l45.227-13.507c0,0,20.6-57.498,12.329-89.864
			c-8.272-32.366-23.763-50.524-23.763-50.524s-27.807-11.685-82.106-7.383L886.116,909.185z"/>
		<path style="fill:#F2CCAA;" d="M898.055,950.39c0.771,12.982,1.964,25.073,3.827,29.374c4.675,10.789,9.947,12.545,9.947,12.545
			l40.789,9.997l17.714-5.207c0,0-59.137-8.962-52.584-59.843L898.055,950.39z"/>
		<path style="fill:#233862;" d="M1009.31,1001.035c0,0,22.396,69.715,23.835,93.449c1.438,23.736-42.814,337.182-44.594,348.119
			c-1.679,10.31-14.481,16.881-14.481,16.881s-5.888,3.473-14.29,1.1c-11.658-3.291-15.344-7.232-15.344-7.232
			s-17.434-223.549-6.644-303.403c10.788-79.856,10.915-148.913,10.915-148.913H1009.31z"/>
		<path style="fill:#2B478B;" d="M914.417,998.957c0,0-34.165,45.84-37.35,76.827s-4.997,139.834-11.782,170.043
			c-6.785,30.208-31.717,88.344-31.717,182.565c0,0,2.591,5.399,10.593,8.277c2.559,0.92,5.987,1.813,9.315,2.575
			c6.6,1.513,13.37-1.713,16.382-7.775c16.854-33.937,70.545-143.391,73.298-166.11c1.948-16.078,18.899-122.494,55.879-184.937
			c8.877-14.991-5.448-74.607-5.448-74.607L914.417,998.957z"/>
		<path style="fill:#233862;" d="M1012.888,990.273c0,0-8.991,7.112-26.854,7.472c-21.335,0.43-74.203-5.439-74.203-5.439
			s-2.349,6.563-2.253,13.492c0,0,64.568,16.287,101.979,2.379C1011.558,1008.178,1016.383,999.1,1012.888,990.273z"/>
		<g>
			<path style="fill:#FFFFFF;" d="M981.417,1005.112c0-6.076,4.366-11.018,9.735-11.018c5.368,0,9.736,4.942,9.736,11.018
				c0,6.076-4.368,11.019-9.736,11.019C985.783,1016.131,981.417,1011.188,981.417,1005.112z M984.644,1005.112
				c0,4.297,2.92,7.792,6.508,7.792c3.59,0,6.51-3.495,6.51-7.792c0-4.296-2.92-7.791-6.51-7.791
				C987.565,997.321,984.644,1000.816,984.644,1005.112z"/>
		</g>
		
			<rect x="870.964" y="926.375" transform="matrix(-0.7542 -0.6567 0.6567 -0.7542 956.9781 2331.0771)" style="fill:#163560;" width="87.716" height="120.071"/>
		<path style="fill:#FFB27D;" d="M926.752,1003.096c0,0,25.891,2.281,25.814,8.035c-0.076,5.753-8.212,15.784-12.044,15.784
			c-8.76,0-18.368-13.117-18.368-13.117L926.752,1003.096z"/>
		<path style="fill:#AEC3FF;" d="M918.646,844.537c0,0-32.359,2.269-44.764,32.424c-12.405,30.154-35.94,80.783-35.94,89.302
			c0,8.517,13.147,34.773,83.753,49.868c0,0,7.303-7.682,6.859-13.757c0,0-44.073-37.856-43.955-42.281
			c0.224-8.369,7.226-19.418,45.921-58.126C941.041,891.443,918.646,844.537,918.646,844.537z"/>
		<path style="fill:#FFB27D;" d="M930.636,1003.644c0,0,5.872-1.313,9.704-1.338c3.832-0.026,8.434-0.776,8.462,0.521
			c0.054,2.396-7.663,3.216-7.663,4.311C941.139,1008.232,930.636,1003.644,930.636,1003.644z"/>
		<g>
			<path style="fill:#FFB27D;" d="M937.237,844.067c2.409-4.524,9.308-27.531,9.257-39.478l2.047,0.342l34.434,5.777
				c0,0-0.784,9.18-0.807,17.828c0,0.072-0.002,0.144-0.002,0.216c-0.042,7.51,0.1,11.209-1.406,20.515
				c-0.68,4.199-13.427,5.738-27.843,3.574C947.774,852.069,935.648,847.054,937.237,844.067z"/>
			<path style="fill:#E8945B;" d="M982.975,810.709c0,0-0.784,9.18-0.807,17.828c-19.269-0.46-29.453-15.351-33.627-23.606
				L982.975,810.709z"/>
			<path style="fill:#FFB27D;" d="M989.409,821.479c0,0-45.588,0.752-45.619-27.645c-0.032-28.397-5.936-47.425,23.169-49.104
				c29.104-1.683,34.772,9.148,37.088,18.623C1006.362,772.829,1001.267,820.55,989.409,821.479z"/>
			<path style="fill:#163560;" d="M987.722,744.033c0,0-12.482,33.315-31.637,38.24c-19.156,4.926-27.466-0.207-27.466-0.207
				s14.693-11.672,17.743-32.046C946.362,750.021,978.306,728.177,987.722,744.033z"/>
			<path style="fill:#163560;" d="M984.628,746.738c0,0,9.256,3.46,13.065,10.21c3.725,6.602,6.898,15.343,6.162,26.068
				c0,0,9.404-22.643-1.164-35.452C991.485,733.981,984.628,746.738,984.628,746.738z"/>
		</g>
	</g>
	<g>
		<path style="fill:#FFB27D;" d="M778.288,1192.32c0,0,5.511,20.051,1.305,28.183c-4.205,8.131-12.277,15.124-16.163,10.51
			c-3.886-4.613,3.685-34.001,3.685-34.001L778.288,1192.32z"/>
		<path style="fill:#163560;" d="M714.473,792.731c0,0-21.153-2.23-39.914,10.004c-18.761,12.234-16.732,43.777-32.995,51.25
			c-16.265,7.474-42.717,31.712-40.145,54.171c2.571,22.458,10.317,29.623-0.034,43.048c-10.352,13.425,7.849,46.783,37.872,36.6
			c30.023-10.184,123.605-41.413,132.981-59.099c9.376-17.685,4.55-38.315-4.924-55.231
			C757.839,856.56,778.57,796.354,714.473,792.731z"/>
		<path style="fill:#E8945B;" d="M744.165,1312.551c-15,96.585-27.239,200.648-21.422,255.375
			c4.638,15.307,18.75,20.34,31.209,22.267l-8.504,9.378l-24.09,1.503l-32.221-12.503c0,0,1.823-6.36,3.245-17.448
			c1.641-12.884-4.477-42.277-4.477-42.277s-16.214-101.546-7.409-124.413c2.502-6.499,4.131-13.928,5.119-21.991v-0.009
			c2.521-20.537,0.922-45.209-0.934-69.186c-2.01-26.047-4.321-51.273-1.953-69.504c10.805-83.209,10.565-155.121,10.565-155.121
			l63.098-0.329c0,0,18.146,50.696,10.038,94.291C759.546,1219.646,751.521,1265.198,744.165,1312.551z"/>
		<path style="fill:#ADC8FE;" d="M751.195,929.021c0,0,13.769,3.483,20.417,19.668c6.649,16.183,9.609,139.739,10.838,153.055
			c1.228,13.315-2.877,96.361-2.877,96.361s-9.732,3.43-17.003-2.132c-26.38-20.183-14.3-132.088-14.3-132.088L751.195,929.021z"/>
		<path style="fill:#8CB0EA;" d="M769.507,1137.531c0,0,7.12-97.156,3.225-122.333c-1.379-8.909-17.343,6.559-19.155,29.352
			C751.764,1067.343,769.507,1137.531,769.507,1137.531z"/>
		<path style="fill:#233862;" d="M715.499,1604.603c14.03-1.815,10.342,1.79,30.02,1.807c19.68,0.015,26.377-6.576,27.291-9.4
			c0.817-2.505-8.688-4.48-18.857-6.816l-0.361,0.258c0,0-12.336,6.896-28.561,5.479c-13.225-1.151-26.771-6.486-35.896-7.354
			c-0.543,2.992-1.083,6.054-0.812,9.142C689.084,1606.483,701.468,1606.416,715.499,1604.603z"/>
		<path style="fill:#FFB27D;" d="M708.582,1302.738c-15.001,96.585-38.737,211.188-32.92,265.916
			c4.637,15.307,18.749,20.34,31.209,22.267l-8.506,9.378l-24.09,1.502l-32.221-12.503c0,0,1.825-6.359,3.246-17.448
			c1.641-12.883-4.478-42.275-4.478-42.275s-16.213-101.547-7.408-124.415c2.5-6.498,4.13-13.928,5.119-21.991v-0.008
			c2.521-20.538,0.922-45.209-0.935-69.187c-2.009-26.046-4.32-51.272-1.952-69.504c10.805-83.208,10.563-155.121,10.563-155.121
			l63.099-0.328c0,0,18.143,50.697,10.037,94.29C712.465,1220.374,715.938,1255.387,708.582,1302.738z"/>
		<path style="fill:#233862;" d="M668.417,1605.33c14.03-1.814,10.342,1.79,30.021,1.807c19.678,0.016,26.376-6.576,27.291-9.399
			c0.816-2.506-8.688-4.481-18.858-6.817l-0.361,0.258c0,0-12.337,6.896-28.561,5.479c-13.224-1.149-26.77-6.486-35.895-7.354
			c-0.542,2.993-1.083,6.054-0.812,9.143C642.002,1607.212,654.386,1607.144,668.417,1605.33z"/>
		<path style="fill:#ADC8FE;" d="M629.185,993.786c0,0-1.116,17.002,0.195,37.39c0.871,13.516,14.641,31.553,16.604,36.021
			c4.927,11.209,10.426,13.008,10.426,13.008l42.528,10.189l14.953,3.577l47.022-14.311c0,0,21.139-59.985,12.351-93.644
			c-8.789-33.659-22.07-56.996-22.07-56.996s-54.22-13.8-96.102-1.333L629.185,993.786z"/>
		<path style="fill:#2B478B;" d="M770.285,1196.424c-4.899,63.767-10.775,117.485-10.775,117.485s-29.617,20.182-71.659,22.948
			l-0.007,0.007h-0.007c-19.21,1.263-41.008-1.106-63.761-10.689c0,0-9.456-153.883-4.081-178.43
			c5.384-24.547,29.605-58.413,29.605-58.413l109.764,3.669C759.363,1093.001,775.184,1132.65,770.285,1196.424z"/>
		<path style="fill:#203D77;" d="M761.635,1077.538c0,0-9.324,7.455-27.922,7.927c-22.215,0.563-77.299-5.262-77.299-5.262
			s-2.411,6.847-2.273,14.063c0,0,67.325,16.609,106.207,1.923C760.348,1096.189,765.323,1086.711,761.635,1077.538z"/>
		<g>
			<path style="fill:#FFFFFF;" d="M728.945,1093.162c-0.034-6.328,4.487-11.498,10.077-11.527
				c5.59-0.029,10.165,5.095,10.198,11.422c0.033,6.326-4.488,11.497-10.079,11.526
				C733.552,1104.611,728.977,1099.489,728.945,1093.162z M732.306,1093.145c0.022,4.474,3.082,8.098,6.819,8.078
				s6.759-3.675,6.735-8.148c-0.023-4.475-3.083-8.099-6.82-8.079S732.282,1088.67,732.306,1093.145z"/>
		</g>
		
			<rect x="613.825" y="1011.531" transform="matrix(-0.7576 -0.6528 0.6528 -0.7576 458.0246 2318.2029)" style="fill:#233862;" width="91.343" height="125.033"/>
		<path style="fill:#FFB27D;" d="M672.01,1091.357c0,0,25.255,2.82,25.206,8.812c-0.046,5.993-6.193,18.333-9.308,18.896
			c-3.114,0.563-20.628-16.538-20.628-16.538L672.01,1091.357z"/>
		<path style="fill:#ADC8FE;" d="M662.71,926.292c0,0-33.686,2.538-46.439,34.006c-12.753,31.468-36.986,84.316-36.941,93.185
			c0.047,8.869,13.88,36.14,87.484,51.477c0,0,7.563-8.04,7.069-14.362c0,0-46.101-39.184-46.002-43.791
			c0.188-8.716,7.42-20.259,47.504-60.777C686.284,975.014,662.71,926.292,662.71,926.292z"/>
		<path style="fill:#FFB27D;" d="M667.999,924.638c6.82-1.553,12.447-6.377,14.765-12.977c2.792-7.95,4.983-19.678,4.854-34.361
			l2.135,0.409l35.892,6.913c0,0-0.757,11.289-0.726,21.919c0,0.089,0.001,0.177,0.001,0.265
			c0.004,9.231,6.103,17.348,14.986,19.862c4.535,1.284-21.408,35.814-24.402,35.154
			C709.279,960.448,665.836,925.13,667.999,924.638z"/>
		<path style="fill:#E8945B;" d="M725.644,884.622c0,0-0.757,11.289-0.726,21.919c-20.066-0.461-30.768-18.71-35.166-28.832
			L725.644,884.622z"/>
		<path style="fill:#FFB27D;" d="M732.397,894.653c0,0-47.467,1.029-47.653-28.54c-0.187-29.569-6.439-49.351,23.859-51.259
			c30.299-1.909,36.259,9.337,38.723,19.192C749.788,843.9,744.74,893.623,732.397,894.653z"/>
		<path style="fill:#163560;" d="M730.222,814.017c0,0-12.817,34.759-32.737,39.992c-19.921,5.233-28.602-0.065-28.602-0.065
			s15.238-12.235,18.302-33.469C687.185,820.475,720.33,797.556,730.222,814.017z"/>
		<path style="fill:#163560;" d="M727.014,816.851c0,0,9.657,3.552,13.66,10.56c3.915,6.854,7.269,15.941,6.559,27.114
			c0,0,9.67-23.631-1.404-36.912C734.086,803.528,727.014,816.851,727.014,816.851z"/>
		<path style="fill:#D7E6FF;" d="M715.504,961.822c0,0-32.287-34.131-33.563-48.143c0,0-8.175,2.316-17.757,11.736
			c0,0,7.818,19.292,17.063,25.618c0,0,6.701-0.979,11.97-3.178c0,0-3.321,5.578-5.963,8.91
			C687.254,956.767,701.848,964.943,715.504,961.822z"/>
		<path style="fill:#D7E6FF;" d="M726.512,914.761c0,0,12.786,23.079-11.008,47.062c0,0,14.994-2.949,22.652-13.572
			c0,0-2.421-5.669-4.462-6.974c0,0,4.5-1.817,7.343,0.799c0,0,1.65-12.421-0.085-16.191
			C739.217,922.113,730.229,914.616,726.512,914.761z"/>
		<path style="fill:#233862;" d="M713.112,961.835c-0.006-1.321,1.059-2.398,2.38-2.404c1.32-0.007,2.397,1.059,2.404,2.379
			c0.006,1.321-1.059,2.397-2.38,2.404C714.196,964.221,713.118,963.155,713.112,961.835z"/>
		<path style="fill:#233862;" d="M726.045,995.674c-0.007-1.321,1.059-2.397,2.38-2.404c1.32-0.008,2.396,1.059,2.403,2.379
			c0.008,1.32-1.058,2.398-2.379,2.404C727.129,998.06,726.053,996.994,726.045,995.674z"/>
		<path style="fill:#233862;" d="M728.644,1035.424c-0.006-1.321,1.059-2.397,2.38-2.405c1.321-0.006,2.398,1.06,2.404,2.38
			c0.006,1.321-1.059,2.397-2.38,2.404C729.727,1037.811,728.65,1036.745,728.644,1035.424z"/>
	</g>
	<g>
		<g id="man_1_">
			<path style="fill:#FFB27D;" d="M588.393,793.39c-3.296,8.857-9.005,19.137-14.997,21.692c-6.792,2.899-9.626,6.993-9.626,6.993
				l-5.486-3.185l-6.551-3.809c0,0,0.154-0.727,0.475-1.912c0.315-1.18,0.808-2.823,1.472-4.645c0,0,2.011-2.583,0.779-5.83
				c-1.231-3.24-0.985-8.252,1.116-11.31c2.103-3.052,4.129-10.576,5.395-10.354c3.064,0.526-1.506,10.869-0.194,12.789
				c1.186,1.733,2.668,1.139,2.943,1.007c0.018-0.012,0.034-0.018,0.052-0.029c8.596-3.779,19.02-24.152,23.636-21.404
				C589.129,774.425,589.796,789.617,588.393,793.39z"/>
			<g>
				<path style="fill:#2B478B;" d="M558.655,805.725l10.768,7.567c0.761,0.534,1.82,0.35,2.355-0.411l27.583-39.249
					c0.534-0.76,0.35-1.82-0.411-2.353l-10.768-7.568c-0.761-0.534-1.82-0.349-2.354,0.411l-27.584,39.248
					C557.711,804.13,557.896,805.19,558.655,805.725z"/>
				<path style="fill:#233862;" d="M568.514,812.652l6.313,4.436c0.578,0.407,1.385,0.266,1.791-0.313l28.048-39.909
					c0.406-0.578,0.266-1.386-0.313-1.792l-6.312-4.436c-0.579-0.407-1.385-0.267-1.792,0.313L568.2,810.859
					C567.794,811.438,567.935,812.245,568.514,812.652z"/>
			</g>
			<path style="fill:#94B0ED;" d="M404.184,749.404c0,0,54.79,95.565,74.667,113.148l72.884-54.337c0,0,10.575,3.243,15.207,13.859
				c0,0-44.259,90.172-87.835,93.994c-43.578,3.822-104.739-108.08-104.739-108.08L404.184,749.404z"/>
			<g>
				<path style="fill:#233862;" d="M280.196,1399.38h-31.657c-3.986-2.165-7.536-7.118-8.659-14.506
					c-1.546-10.199-12.977-15.76-15.451-24.104c-2.468-8.338,10.199-20.078,10.199-20.078l2.119-2.731l2.205-2.834l21.011,4.947
					c0,0,0.521,5.006,0.836,11.379c0.229,4.598,0.35,9.913,0.092,14.574c-0.619,11.121,3.109,23.102,12.994,25.266
					C281.192,1392.892,280.865,1397.227,280.196,1399.38z"/>
				<path style="fill:#233862;" d="M463.919,1399.38h-72.396c-3.482-4.249-2.199-19.929-1.673-25.049
					c0.109-1.03,0.184-1.632,0.184-1.632s24.722-19.774,28.118-4.633c0.103,0.475,0.229,0.939,0.366,1.396
					c4.278,14.163,23.469,20.6,34.549,22.392C460.27,1393.022,462.935,1396.769,463.919,1399.38z"/>
				<path style="fill:#2B478B;" d="M450.124,995.269c0,0-3.753,46.835-8.165,103.134c-5.997,76.478-13.208,170.419-13.922,188.215
					c-1.233,30.902-6.183,80.333-6.183,80.333s-11.734,11.744-35.222,6.794c0,0-20.929-70.563-26.908-145.225
					c-0.093-1.224-0.185-2.456-0.278-3.688c-5.561-76.006-14.209-236.051-14.209-236.051L450.124,995.269z"/>
				<path style="fill:#233862;" d="M450.124,995.269c0,0-3.753,46.835-8.165,103.134l-82.234,130.117
					c-0.093-1.224-0.185-2.456-0.278-3.688c-5.561-76.006-14.209-236.051-14.209-236.051L450.124,995.269z"/>
				<path style="fill:#2B478B;" d="M432.981,1000.83c0,0-67.663,169.621-112.153,249.334
					c-44.491,79.712-58.394,101.957-58.394,101.957s-25.49-10.195-27.807-17.147c0,0,17.013-153.889,46.808-191.402
					c16.836-21.197,36.612-84.81,37.539-107.056c0.927-22.245,6.025-66.272,6.025-66.272L432.981,1000.83z"/>
			</g>
			<path style="fill:#FFB27D;" d="M416.138,753.559c-26.44,8.345-72.19-14.173-72.19-14.173s24.378-18.296,23.101-56.34
				l20.445,16.476l13.887,11.191c0,0-0.058,6.596-1.575,18.159c-0.176,1.335-0.371,2.738-0.587,4.205
				c-0.515,3.49,1.044,6.956,3.968,8.93C411.483,747.611,416.138,753.559,416.138,753.559z"/>
			<path style="fill:#ED975D;" d="M401.38,710.713c0,0-0.058,6.596-1.575,18.159c-15.387-2.641-32.842-27.512-32.842-27.512
				c7.834-2.262,14.694-2.669,20.53-1.839L401.38,710.713z"/>
			<path style="fill:#FFB27D;" d="M409.466,710.086c0,0-43.674,7.255-47.774-20.013c-4.1-27.267-12.498-44.695,15.214-50.48
				c27.711-5.784,34.706,3.804,38.288,12.572C418.776,660.934,420.721,707.496,409.466,710.086z"/>
			<path style="fill:#AEC3FF;" d="M453.042,999.17c-0.796,0.662-1.72,1.06-2.778,1.06c-9.93-0.135-38.884,5.38-63.383,2.863
				c-20.654-1.982-38.935-8.101-58.566-16.9c-2.606-1.169-8.607-4.371-8.472-7.285c0.088-3.19,0.405-7.817,0.802-13.646
				c1.39-20.263,3.812-55.116,1.451-95.324c-0.425-7.488-0.648-14.914-0.674-22.226c-0.203-54.496,10.604-102.428,32.316-118.65
				c1.855-1.329,13.241,4.236,23.703,9.396c9.665,4.769,19.332,5.296,28.465,3.446l9.133,8.074
				c11.123,10.328,23.305,24.364,28.6,45.68c4.507,18.138,7.15,50.846,8.607,84.74c0.661,15.36,1.194,30.854,1.329,45.552v0.525
				c0.128,1.458,0.128,3.05,0.128,4.507C454.236,968.715,453.703,998.638,453.042,999.17z"/>
			<path style="fill:#94B0ED;" d="M320.645,965.262c1.39-20.263,3.812-55.116,1.451-95.324c-0.425-7.488-0.648-14.914-0.674-22.226
				c9.045-21.943,16.438-37.854,16.438-37.854h22.799C360.658,809.857,377.373,924.027,320.645,965.262z"/>
			<g>
				<path style="fill:#233862;" d="M203.858,1094.656l97.237,13.855c12.655,1.805,24.485-7.075,26.288-19.729l6.005-42.14
					c1.803-12.654-7.075-24.484-19.73-26.287L216.42,1006.5c-12.655-1.805-24.484,7.075-26.288,19.729l-6.005,42.139
					C182.325,1081.023,191.203,1092.854,203.858,1094.656z"/>
				<path style="fill:#2B478B;" d="M319.148,1032.918v-0.006c-2.732-6.837-8.63-12.237-16.109-14.07h-0.006
					c-0.006,0-0.011,0-0.017-0.006c-0.733-0.178-1.478-0.326-2.245-0.434l-19.362-2.755l1.294-9.094
					c0.293-2.027-0.229-4.055-1.466-5.704c-1.237-1.643-3.04-2.714-5.068-3.001l-5.051-0.721l-20.33-2.898l-3.665-0.521
					c-4.198-0.596-8.109,2.33-8.705,6.533l-1.294,9.094l-33.421-4.765c-12.702-1.809-24.573,7.102-26.389,19.804l-6.07,42.629
					c-1.809,12.702,7.102,24.573,19.803,26.383l97.062,13.836c1.712,0.246,3.408,0.292,5.063,0.16h0.006c0.005,0,0.005,0,0.011,0
					c2.657-0.2,5.211-0.864,7.576-1.912c7.136-3.149,12.553-9.805,13.733-18.057l6.076-42.624
					C321.165,1040.633,320.609,1036.571,319.148,1032.918z M243.195,1000.923c0.183-1.271,1.18-2.233,2.388-2.429
					c0.281-0.045,0.567-0.051,0.865-0.01l4.318,0.612l16,2.284l8.722,1.243c1.569,0.224,2.663,1.684,2.439,3.247l-1.294,9.094
					l-34.732-4.954L243.195,1000.923z"/>
			</g>
			<path style="fill:#FFB27D;" d="M277.801,969.185c0,0-5.107,6.802-5.309,9.52c-1.373,18.422,7.044,20.969-14.749,31.202
				c0,0-9.304,3.548-9.462-3.673c-0.158-7.223,6.457-7.342,5.247-17.453c-1.395-11.665-1.255-11.773,6.4-17.864l5.069-8.379
				L277.801,969.185z"/>
			<path style="fill:#AEC3FF;" d="M264.814,974.398c8.21,1.602,17.11,0.952,17.11,0.952s24.374-75.294,27.511-82.172
				c3.137-6.877,72.398-88.286,72.398-88.286l-28.853-72.207c0,0-74.913,125.133-82.519,142.716
				c-12.57,29.056-16.933,94.198-16.933,94.198S258.366,973.142,264.814,974.398z"/>
			<path style="fill:#2B478B;" d="M361.657,687.449c0,0,4.482-0.749,3.759-6.922c-0.723-6.174-0.714-14.242,4.306-12.738
				c5.019,1.504,5.268,5.522,7.331,3.176c2.063-2.348,2.099-12.234,17.034-12.922c14.934-0.689,21.003,4.51,27.947,1.457
				c6.945-3.054,7.312-13.565,7.312-13.565s-1.976,3.753-4.958,4.946c0,0,11.586-15.848-1.828-26.714
				c-13.414-10.866-27.092-3.752-34.855-3.283c-17.104,1.036-28.152,2.063-33.74,13.302
				C348.376,645.425,350.682,676.631,361.657,687.449z"/>
			<path style="fill:#FFB27D;" d="M269.746,977.286c0,0,4.918,5.126,5.228,7.258c0.996,6.846,3.282,9.803,2.136,10.548
				c-2.381,1.548-5.533-3.521-7.039-8.068C268.565,982.476,269.746,977.286,269.746,977.286z"/>
		</g>
	</g>
	<rect x="118.193" y="171.729" style="fill:#AEC3FF;" width="2554.111" height="99.849"/>
	<g>
		<g>
			<path style="fill:#4A67C6;" d="M1603.097,996.733h-55.998c-3.512,0-6.359-2.847-6.359-6.359V877.533
				c0-3.513,2.848-6.359,6.359-6.359h55.998c3.512,0,6.359,2.847,6.359,6.359v112.841
				C1609.456,993.887,1606.608,996.733,1603.097,996.733z"/>
		</g>
		<g>
			<path style="fill:#6980E2;" d="M1593.743,996.733h-53.261c-4.269,0-7.729-3.46-7.729-7.727V878.902
				c0-4.268,3.46-7.728,7.729-7.728h53.261c4.269,0,7.728,3.46,7.728,7.728v110.104
				C1601.471,993.273,1598.012,996.733,1593.743,996.733z"/>
		</g>
		<g>
			<path style="fill:#8C9DF4;" d="M1584.806,969.312h-35.386c-3.441,0-6.232-2.79-6.232-6.232v-75.148
				c0-3.443,2.791-6.232,6.232-6.232h35.386c3.441,0,6.231,2.789,6.231,6.232v75.148
				C1591.037,966.521,1588.247,969.312,1584.806,969.312z"/>
		</g>
		<g>
			<g>
				<rect x="1548.966" y="950.328" style="fill:#F0F5FF;" width="22.745" height="1.936"/>
			</g>
			<g>
				<rect x="1548.966" y="955.529" style="fill:#F0F5FF;" width="34.025" height="1.936"/>
			</g>
			<g>
				<rect x="1548.966" y="960.732" style="fill:#F0F5FF;" width="26.979" height="1.936"/>
			</g>
		</g>
	</g>
	<g>
		<g>
			<path style="fill:#4A67C6;" d="M2028.803,996.733h-56.324c-3.422,0-6.195-2.774-6.195-6.195V877.369
				c0-3.421,2.773-6.195,6.195-6.195h56.324c3.422,0,6.197,2.774,6.197,6.195v113.169
				C2035,993.959,2032.225,996.733,2028.803,996.733z"/>
		</g>
		<g>
			<path style="fill:#6980E2;" d="M2020.887,996.733h-56.462c-3.384,0-6.128-2.742-6.128-6.127V877.301
				c0-3.384,2.744-6.127,6.128-6.127h56.462c3.385,0,6.129,2.743,6.129,6.127v113.306
				C2027.016,993.991,2024.271,996.733,2020.887,996.733z"/>
		</g>
		<g>
			<path style="fill:#8C9DF4;" d="M2008.775,969.312h-32.238c-4.312,0-7.807-3.495-7.807-7.806v-72.001
				c0-4.311,3.495-7.806,7.807-7.806h32.238c4.311,0,7.805,3.494,7.805,7.806v72.001
				C2016.58,965.816,2013.086,969.312,2008.775,969.312z"/>
		</g>
		<g>
			<g>
				<rect x="1974.509" y="888.594" style="fill:#F0F5FF;" width="22.745" height="1.936"/>
			</g>
			<g>
				<rect x="1974.509" y="893.796" style="fill:#F0F5FF;" width="34.025" height="1.936"/>
			</g>
			<g>
				<rect x="1974.509" y="898.999" style="fill:#F0F5FF;" width="26.979" height="1.936"/>
			</g>
		</g>
		<g>
			<g>
				<rect x="1974.509" y="912.185" style="fill:#F0F5FF;" width="22.745" height="1.936"/>
			</g>
			<g>
				<rect x="1974.509" y="917.389" style="fill:#F0F5FF;" width="34.025" height="1.936"/>
			</g>
			<g>
				<rect x="1974.509" y="922.59" style="fill:#F0F5FF;" width="26.979" height="1.937"/>
			</g>
		</g>
	</g>
	<g>
		<g>
			<path style="fill:#4A67C6;" d="M2408.426,996.733h-59.61c-2.516,0-4.553-2.038-4.553-4.553V875.727
				c0-2.515,2.037-4.553,4.553-4.553h59.61c2.516,0,4.553,2.038,4.553,4.553v116.454
				C2412.979,994.695,2410.941,996.733,2408.426,996.733z"/>
		</g>
		<g>
			<path style="fill:#6980E2;" d="M2398.984,996.733h-56.697c-3.319,0-6.01-2.69-6.01-6.009V877.184c0-3.32,2.69-6.01,6.01-6.01
				h56.697c3.318,0,6.01,2.689,6.01,6.01v113.541C2404.994,994.043,2402.303,996.733,2398.984,996.733z"/>
		</g>
		<g>
			<path style="fill:#8C9DF4;" d="M2387.823,969.312h-34.374c-3.722,0-6.738-3.017-6.738-6.738v-74.137
				c0-3.722,3.017-6.737,6.738-6.737h34.374c3.722,0,6.737,3.016,6.737,6.737v74.137
				C2394.561,966.295,2391.545,969.312,2387.823,969.312z"/>
		</g>
		<g>
			<g>
				<rect x="2352.488" y="939.924" style="fill:#F0F5FF;" width="22.745" height="1.936"/>
			</g>
			<g>
				<rect x="2352.488" y="945.126" style="fill:#F0F5FF;" width="34.025" height="1.934"/>
			</g>
			<g>
				<rect x="2352.488" y="950.328" style="fill:#F0F5FF;" width="26.979" height="1.936"/>
			</g>
		</g>
	</g>
	<g>
		<path style="fill:#FFB27D;" d="M1959.998,956.775c0,0,3.288-3.513,8.363-4.785c5.076-1.271,11.172-5.253,10.177-2.267
			c-0.995,2.985-9.216,8.438-9.216,8.438L1959.998,956.775z"/>
		<path style="fill:#1C468A;" d="M1984.609,989.553l-16.241-5.414c-3.849-1.283-5.929-5.441-4.646-9.29l11.422-34.26
			c1.281-3.849,5.441-5.928,9.288-4.646l16.241,5.413c3.848,1.283,5.928,5.442,4.645,9.29l-11.42,34.262
			C1992.615,988.756,1988.456,990.835,1984.609,989.553z"/>
		<path style="fill:#FFB27D;" d="M1652.153,1047.904c0,0-0.658,14.281-2.368,20.434c-1.711,6.152-15.745,21.092-21.007,17.721
			c-5.262-3.37,1.858-17.236,0.262-21.992c-1.598-4.757,3.353-20.661,6.419-24.172
			C1638.525,1036.385,1652.153,1047.904,1652.153,1047.904z"/>
		<path style="fill:#E58638;" d="M1737.902,799.089c0,0-78.957,101.939-94.539,158.034c-15.581,56.096-15.581,96.607-15.581,96.607
			s9.973,3.978,25.554,3.547c0,0,21.815-81.062,33.034-89.049c11.219-7.988,74.559-94.624,70.001-120.177
			C1751.813,822.497,1737.902,799.089,1737.902,799.089z"/>
		<path style="fill:#FFB27D;" d="M1953.635,957.055c0,0,17.174-0.99,24.771,0c7.597,0.99,27.413,13.211,24.11,18.826
			c-3.304,5.614-18.789,2.335-24.257,4.471c-5.468,2.135-27.267-3.15-31.892-5.792
			C1941.744,971.917,1953.635,957.055,1953.635,957.055z"/>
		<path style="fill:#163560;" d="M1746.665,1425.126c0,0,1.565,25.236,6.252,31.171h72.113c-0.456-2.517-2.498-8.729-11.515-10.304
			c-11.394-1.982-30.468-9.988-37.364-25.049C1768.89,1405.102,1746.665,1425.126,1746.665,1425.126z"/>
		<path style="fill:#122F51;" d="M1609.358,1414.098c0,0-8.041,30.74-1.962,31.955c0.809,0.161,29.538,3.156,37.223,5.153
			c12.551,3.261,34.001,3.852,34.001,3.852c2.652,0.394,4.704-2.307,3.59-4.746c-1.221-2.677-3.774-5.667-9.078-7.283
			c-11.063-3.371-29.003-13.662-34.001-29.454C1633.873,1396.961,1609.358,1414.098,1609.358,1414.098z"/>
		<path style="fill:#163560;" d="M1780.572,1089.271c0,0-18.133,63.447-70.1,173.628c-51.969,110.182-63.272,159.28-63.272,159.28
			l-40.345-6.15c0,0,15.205-125.567,39.752-181.169c24.549-55.602,29.55-207.755,29.55-207.755L1780.572,1089.271z"/>
		<path style="fill:#1C468A;" d="M1809.684,1034.68c0,0,1.443,98.246-15.555,218.876c-16.999,120.63-11.237,171.835-11.237,171.835
			l-40.712,1.354c0,0-24.33-120.675-17.354-181.053s-33.317-207.184-33.317-207.184L1809.684,1034.68z"/>
		<path style="fill:#FFB27D;" d="M1729.351,804.769l19.201,14.222l27.752-5.842c-0.384-2.531-2.217-13.019-3.885-22.519
			c-0.1-0.56-0.201-1.121-0.296-1.67c-1.43-8.083-2.663-15.027-2.663-15.027l-25.92-12.919l-9.663-4.815
			c0.024,0.17,0.749,8.972,0.85,10.255C1736.539,789.269,1729.351,804.769,1729.351,804.769z"/>
		<path style="fill:#E58638;" d="M1774.361,797.593c-0.608-0.257-37.751-11.218-41.785-9.885c-4.035,1.332-6.424,9.14-6.424,9.14
			l60.752,13.735C1786.904,810.583,1782.123,800.86,1774.361,797.593z"/>
		<path style="fill:#EE9849;" d="M1674.345,1046.808c6.295,28.721,111.075,32.127,138.084,6.056
			c3.071-2.971,3.223-16.796,2.064-35.438c-2.267-36.421-9.544-91.207-9.828-119.197c-0.138-13.518-1.995-27.343-4.47-39.897
			c-5.263-26.756-13.289-47.753-13.289-47.753s-51.179-16.546-60.754-13.731C1680.018,810.403,1668.048,1018.086,1674.345,1046.808z
			"/>
		<path style="fill:#E58638;" d="M1814.493,1017.426c-2.267-36.421-9.544-91.207-9.828-119.197
			c-0.138-13.518-1.995-27.343-4.47-39.897l-30.785-5.433C1769.41,852.899,1739.31,975.843,1814.493,1017.426z"/>
		<path style="fill:#FCA56B;" d="M1736.672,766.856c5.691,10.892,26.901,20.31,35.747,23.773c-0.1-0.56-0.201-1.121-0.296-1.67
			c-1.43-8.083-2.663-15.027-2.663-15.027l-25.92-12.919C1737.812,760.925,1734.324,762.373,1736.672,766.856z"/>
		<path style="fill:#FFB27D;" d="M1782.057,772.415c0,0-46.763,14.587-55.398-14.674c-8.636-29.261-20.487-47.084,9.004-57.636
			c29.491-10.55,38.613-1.105,43.871,7.96C1784.791,717.132,1793.997,767.866,1782.057,772.415z"/>
		<path style="fill:#163560;" d="M1777.697,705.247c0,0-2.983,34.05-10.024,32.572c-7.041-1.477-13.428-2.574-12.397,7.69
			c1.031,10.264,2.356,28.726-19.345,30.542c-21.701,1.815-44.46-60.761-38.497-71.357
			C1714.635,674.119,1802.559,667.949,1777.697,705.247z"/>
		<path style="fill:#EE9849;" d="M1786.904,810.583c0,0,56.088,93.754,84.821,106.571c28.733,12.818,84.044,36.245,84.044,36.245
			s1.827,22.482-8.741,26.444c-10.568,3.963-90.495-16.514-100.403-19.155c-9.908-2.644-80.72-52.734-89.356-66.056
			C1748.631,881.312,1751.006,812.879,1786.904,810.583z"/>
	</g>
	<g>
		<g>
			<path style="fill:#FFB27D;" d="M1389.085,842.213c0,0,66.08,62.991,97.994,64.758c31.915,1.767,56.383,2.296,56.383,2.296v12.178
				c0,0-46.507,14.792-92.552,8.297c-9.211-1.3-72.87-35.83-72.87-35.83L1389.085,842.213z"/>
			<path style="fill:#233862;" d="M1373.912,737.215c0,0-37.977-45.429-58.083-16.36c0,0-14.999,6.193-20.424,31.608
				c-5.536,25.931,11.786,45.641,20.743,40.77c5.744-3.124,10.093,6.884,10.093,6.884L1373.912,737.215z"/>
			<path style="fill:#466AA5;" d="M1223.4,1021.694c1.053,2.547,5.635,4.81,12.236,6.44c14.794,3.668,39.742,4.147,57.936-2.562
				c19.509-7.188,33.66-109.834,39.675-162.439c2.099-18.352,3.209-30.619,3.209-30.619s-11.205-17.463-54.58-11.642
				c-43.367,5.82-47.753,20.373-51.649,46.567C1226.324,893.634,1219.994,1013.443,1223.4,1021.694z"/>
			<path style="fill:#0E2847;" d="M1235.637,1028.134c14.794,3.668,39.742,4.147,57.936-2.562
				c19.509-7.188,33.66-109.834,39.675-162.439c-5.138-18.104-9.216-30.016-9.216-30.016s-54.456-6.548-65.056,9.824
				C1249.496,857.58,1237.968,998.527,1235.637,1028.134z"/>
			<path style="fill:#233862;" d="M1319.979,716.247c0,0-5.106-20.332-35.105-13.978c0,0,14.361-1.801,18.297,3.706
				c0,0-11.382-5.188-18.51-0.847c-7.127,4.341-8.298,18.954-7.234,23.402c1.064,4.447,8.937,17.683,14.149,17.683
				c5.212,0,11.382-4.553,11.382-4.553L1319.979,716.247z"/>
			<path style="fill:#FFB27D;" d="M1275.088,1034.457c14.916-33.299,22.053-42.715,22.302-53.192
				c0.197-8.286-3.906-17.225-11.878-39.146c-1.877-5.165-3.173-10.477-3.971-15.846c-5.402-36.207-0.441-83.17,17.776-89.095
				c4.787-1.559,13.541-1.514,15.726-1.959c4.245-1.116,11.441-16.38,11.353-40.974l1.911,0.374l32.128,6.333
				c0,0-0.731,10.064-0.753,19.547c-0.021,7.9,0.457,15.39,2.255,16.333c2.313,0.208,3.678,0.346,3.678,0.346
				s26.789,37.033,29.042,71.476c2.253,34.443-21.452,49.407,0.179,118.235C1416.92,1097.187,1266.848,1052.857,1275.088,1034.457z"
				/>
			<path style="fill:#E8945B;" d="M1360.435,800.953c0,0-0.731,10.064-0.753,19.547c-17.979-0.505-27.48-16.83-31.375-25.88
				L1360.435,800.953z"/>
			<path style="fill:#233862;" d="M1324.988,791.139c0,0-9.421-14.818-11.683-27.49c-1.614-9.045,3.015-42.579,36.865-37.749
				c0,0,9.832,0.965,19.073,7.178c7.349,4.94,17.957,15.608,6.097,44.87l-3.08,9.885L1324.988,791.139z"/>
			<path style="fill:#FFB27D;" d="M1366.439,809.932c0,0-42.537,0.698-42.566-25.678c-0.029-26.375-5.539-44.048,21.618-45.609
				c27.157-1.56,32.445,8.498,34.605,17.299C1382.258,764.744,1377.502,809.07,1366.439,809.932z"/>
			<path style="fill:#233862;" d="M1364.865,737.998c0,0-11.647,30.944-29.521,35.519c-17.873,4.576-25.625-0.191-25.625-0.191
				s13.709-10.841,16.555-29.766C1326.273,743.56,1356.079,723.271,1364.865,737.998z"/>
			<path style="fill:#233862;" d="M1361.978,740.51c0,0,8.697,6.909,10.819,13.626c2.12,6.717,3.074,20.542,7.122,20.073
				c0,0,8.774-21.032-1.087-32.931C1368.376,728.662,1361.978,740.51,1361.978,740.51z"/>
			<path style="fill:#E58638;" d="M1312.752,1353.99c10.701,42.377,26.812,74.865,26.812,74.865l14.027-0.969
				c0,0-6.879-32.575-6.484-76.589c0.278-30.771,4.101-67.137,16.315-101.858c41.971-119.322,35.188-206.164,35.188-206.164
				l-78.928,9.19l-3.678,0.43c-0.328,36.082-1.264,85.072-2.082,123.381c-0.725,34.452-1.36,60.262-1.36,60.262
				C1297.387,1269.07,1302.898,1314.99,1312.752,1353.99z"/>
			<path style="fill:#EE9849;" d="M1267.47,1347.224c4.539,48.212,24.521,79.388,24.521,79.388l6.7,4.852
				c0,0,6.341-33.969,10.83-74.38c4.276-38.411,10.138-79.057,16.769-91.462c26.32-49.201,34.244-234.94,34.244-234.94
				l-80.024-3.951c-8.047,13.468-11.557,35.559-12.391,60.677c-2.104,63.39,12.866,146.047,15.102,158.002
				c0,0.007,0,0.014,0.008,0.028c0.175,0.925-0.095,1.834-0.525,2.671C1266.782,1279.482,1264.479,1315.375,1267.47,1347.224z"/>
			<path style="fill:#233862;" d="M1363.594,741.556c0,0-8.298,32.404-30.85,42.782c0,0,22.552-19.908,24.466-41.3
				C1359.126,721.648,1363.594,741.556,1363.594,741.556z"/>
			<path style="fill:#9FC1F4;" d="M1265.058,1058.498c-0.14,2.685,0.007,4.83,0.497,6.366c1.703,5.333,7.551,7.763,21.688,6.308
				c8.639-0.895,12.491-15.309,14.209-27.605c5.189,17.595,12.455,27.468,21.849,29.542c13.704,3.034,82.839,11.401,87.363-21.313
				c4.978-35.98-9.927-99.691-10.745-134.042c2.031-12.18,2.727-22.752,2.507-31.833c-0.577-24.471-7.792-38.185-13.34-43.708
				c-1.571-1.2-3.143-1.949-9.45-3.027c-3.225-0.545-7.69-1.177-14.021-2.007c0,0-2.582-0.29-2.523-0.195
				c1.169,2.081,7.463,16.796,7.274,22.983c-0.374,12.192-23.89,13.437-34.457,5.101c-10.745-8.477-27.739-29.447-27.739-29.447
				s-19.662,2.141-29.282,9.103c0,0,0.037,0.043,0.102,0.124c-1.161,0.828-2.031,1.709-2.527,2.648
				c-3.842,7.28-6.277,36.101-7.867,70.281c-0.508,10.904,2.643,54.676,2.288,66.146
				C1269.381,1032.543,1265.523,1049.196,1265.058,1058.498z"/>
			<g>
				<path style="fill:#142644;" d="M1331.485,1440.563h8.955c3-0.471,5.215-1.335,8.291-1.734c4.673-0.61,6.824,1.296,7.252,1.734
					c0.058,0.057,0.082,0.089,0.082,0.089h38.041c0.958-1.36,0.038-4.511-0.861-6.83c-0.605-1.576-1.928-2.771-3.562-3.24
					c-4.034-1.163-11.987-2.198-19.27-8.762c-4.098-3.686-19.787-13.553-19.787-13.553l-0.083-0.019
					c-0.345,0.006-1.984,0.508-9.12,6.506c-3.689,3.095-9.978-4.371-9.978-4.371s-1.181,0.972-2.061,2.783
					c-0.709,1.429-1.226,3.393-0.817,5.813c0.568,3.412-1.264,9.754-2.726,14.042c-0.887,2.599-1.634,4.44-1.634,4.44
					S1323.781,1439.604,1331.485,1440.563z"/>
			</g>
			<g>
				<path style="fill:#233862;" d="M1283.697,1440.563h8.955c3.001-0.471,5.215-1.335,8.291-1.734
					c4.672-0.61,6.824,1.296,7.252,1.734c0.058,0.057,0.082,0.089,0.082,0.089h38.042c0.957-1.36,0.038-4.511-0.862-6.83
					c-0.605-1.576-1.928-2.771-3.562-3.24c-4.034-1.163-11.987-2.198-19.27-8.762c-4.098-3.686-19.786-13.553-19.786-13.553
					l-0.084-0.019c-0.344,0.006-1.984,0.508-9.121,6.506c-3.688,3.095-9.976-4.371-9.976-4.371s-1.181,0.972-2.062,2.783
					c-0.709,1.429-1.226,3.393-0.817,5.813c0.568,3.412-1.264,9.754-2.726,14.042c-0.887,2.599-1.634,4.44-1.634,4.44
					S1275.993,1439.604,1283.697,1440.563z"/>
			</g>
			<path style="fill:#FFB27D;" d="M1278.988,844.848c0,0-69.609,70.893-66.95,95.148c2.66,24.256,60.522,81.817,60.522,81.817
				l5.097-14.965c0,0-32.727-65.945-29.935-69.519c2.793-3.574,40.553-27.004,44.143-33.357
				C1295.456,897.618,1278.988,844.848,1278.988,844.848z"/>
			<path style="fill:#FFB27D;" d="M1277.657,1006.849c0,0,20.675-2.112,22.584,0c1.909,2.112,9.549,18.534,3.501,19.01
				c-6.047,0.476-13.005-5.873-15.813-4.521c-2.807,1.353-7.937,6.513-13.646,2.981c-1.785-1.104-2.642-3.102-5.378-5.407
				C1264.819,1015.468,1277.657,1006.849,1277.657,1006.849z"/>
			<path style="fill:#FFB27D;" d="M1277.657,1006.849c0,0,8.041-2.429,10.272-4.225c2.232-1.795,2.869,3.345-1.799,4.929
				C1281.463,1009.137,1277.657,1006.849,1277.657,1006.849z"/>
			<path style="fill:#FFB27D;" d="M1566.503,919.793h-0.007c-1.038,0.738-2.41,1.31-4.221,1.651c-8.474,1.589-18.813,0-18.813,0
				v-12.175c0,0,3.59-2.652,5.186-4.766c1.596-2.12,4.388-9.07,4.388-9.07c4.142,0.35,0.647,9.182,2.745,9.483
				c1.045,0.143,4.341-0.144,7.42,0.127h0.017c3.08,0.262,5.936,1.081,6.111,3.431
				C1569.583,912.112,1570.316,917.068,1566.503,919.793z"/>
			<path style="fill:#9FC1F4;" d="M1384.039,840.059c0,0,6.547,0.641,18.425,11.495c11.878,10.854,39.821,34.315,39.821,34.315
				s-6.925,30.05-42.367,31.886L1384.039,840.059z"/>
			<path style="fill:#466AA5;" d="M1365.614,837.179c0,0,0.028,0.05,0.088,0.146c1.886,2.968,31.387,49.906,34.216,80.43
				c1.86-11.149,2.6-20.951,2.543-29.496c-0.01-1.517-0.257-3.018-0.741-4.456c-4.147-12.301-12.86-35.583-22.085-44.616
				C1378.406,837.979,1365.614,837.179,1365.614,837.179z"/>
			<path style="fill:#9FC1F4;" d="M1280.17,843.859c0,0-8.578,5.312-19.35,16.629c-10.771,11.317-28.522,34.945-28.522,34.945
				s10.78,31.221,47.145,34.308s16.683-34.771,16.683-34.771L1280.17,843.859z"/>
			<path style="fill:#466AA5;" d="M1286.752,832.026c0,0,23.765,14.33,26.688,70.357c2.923,56.026-42.559,81.539-42.559,81.539
				l-0.432-17.236c0,0,37.992-33.442,27.271-78.069c-10.72-44.628-26.839-54.19-26.839-54.19L1286.752,832.026z"/>
			<g>
				<path style="fill:#163560;" d="M1568.554,942.128l-19.254-5.978c-2.667-0.827-4.157-3.66-3.329-6.327l12.533-40.378
					c0.829-2.667,3.661-4.157,6.328-3.329l19.254,5.977c2.666,0.827,4.156,3.66,3.329,6.327l-12.535,40.378
					C1574.053,941.465,1571.22,942.955,1568.554,942.128z"/>
				<path style="fill:#9FC1F4;" d="M1567.637,939.254l-15.953-4.952c-2.332-0.725-3.635-3.2-2.911-5.531l11.445-36.87
					c0.724-2.331,3.2-3.634,5.53-2.911l15.954,4.952c2.331,0.725,3.634,3.2,2.91,5.531l-11.444,36.871
					C1572.443,938.674,1569.968,939.977,1567.637,939.254z"/>
			</g>
		</g>
	</g>
	<g>
		<path style="fill:#163560;" d="M2129.218,848.492c-2.888-5.567,62.98-25.617,64.023,29.332c0,0,123.389-3.033,64.474-71.808
			c-20.396-23.809-18.297-43.495-17.687-61.819c0.62-18.327-12.704-71.589-58.374-66.227c0,0-11.961-4.867-26.888,2.877
			C2120.822,698.458,2044.781,868.757,2129.218,848.492z"/>
		<path style="fill:#FFB27D;" d="M2323.673,916.419c0,0,12.606,7.422,18.52,4.777c5.913-2.644,18.15-4.929,16.23-6.655
			c-1.919-1.728-8.692,1.341-9.974,0.367c-1.28-0.973,8.305-8.098,11.211-9.795c2.905-1.698,10.109-4.978,9.153-6.378
			c-0.957-1.4-16.606-1.443-25.058,3.786c-8.451,5.231-21.114,7.189-21.114,7.189L2323.673,916.419z"/>
		<path style="fill:#1C468A;" d="M2367.683,932.726l-13.86-4.621c-3.283-1.094-5.059-4.644-3.965-7.929l9.748-29.238
			c1.095-3.285,4.645-5.06,7.928-3.965l13.861,4.62c3.283,1.095,5.059,4.645,3.965,7.929l-9.748,29.24
			C2374.518,932.045,2370.968,933.819,2367.683,932.726z"/>
		<path style="fill:#FFB27D;" d="M2342.192,921.196c5.913-2.644,18.15-4.929,16.23-6.655c-1.919-1.728-8.692,1.341-9.974,0.367
			C2347.169,913.935,2336.279,923.841,2342.192,921.196z"/>
		<path style="fill:#F99746;" d="M2214.786,913.878c0,0,4.366,8.645,12.285,18.578c9.544,11.954,24.26,25.763,42.735,28.488
			c8.826,1.302,17.456-0.597,25.39-4.121c0.021-0.007,0.029-0.007,0.029-0.007c22.439-9.961,39.313-32.869,39.313-32.869
			c3.956-10.788-2.518-18.104-2.518-18.104s-45.312,10.192-49.626,8.034c-4.316-2.158-29.488-74.678-35.48-83.79
			c-5.998-9.112-26.424-13.845-26.424-13.845L2214.786,913.878z"/>
		<path style="fill:#ED7D2B;" d="M2227.071,932.456c9.544,11.954,24.26,25.763,42.735,28.488c8.826,1.302,17.456-0.597,25.39-4.121
			c-0.878,0.115-23.288,2.884-32.222-13.098c-9.113-16.305-18.966-42.196-32.502-33.565
			C2224.633,913.885,2224.892,923.142,2227.071,932.456z"/>
		<path style="fill:#233862;" d="M2048.67,1400.815c0,0-13.826,12.618-11.129,21.584c2.698,8.964,15.176,14.941,16.862,25.899
			c1.686,10.958,8.43,16.935,14.501,16.935c6.069,0,28.938,0,28.938,0s4.468-7.711-6.323-10.035s-14.86-15.2-14.186-27.154
			s-1.012-27.893-1.012-27.893l-22.931-5.313L2048.67,1400.815z"/>
		<path style="fill:#1B3051;" d="M2162.762,1408.35c0,0-4.974,53.453,1.096,56.441l77.684-0.159c0,0,0-8.966-12.479-10.957
			c-12.477-1.993-34.396-9.298-38.105-25.569C2187.248,1411.836,2162.762,1408.35,2162.762,1408.35z"/>
		<path style="fill:#FFB27D;" d="M2107.404,1024.861c15.985-35.851,25.768-46.142,23.899-57.268
			c-1.39-8.281,4.231-154.412,4.231-154.412c1.898-0.586,5.699-1.113,7.779-1.575c6.557-1.457,11.983-6.061,14.242-12.387
			c2.721-7.621,4.885-18.871,4.833-32.971l2.049,0.403l34.431,6.818c0,0-0.783,10.835-0.807,21.043c0,0.084,0,0.17-0.001,0.253
			c-0.041,8.866,5.774,16.691,14.292,19.149c4.349,1.255,8.133,2.329,8.133,2.329s12.643,36.096,15.059,73.177
			c2.414,37.081-22.99,53.191,0.19,127.292C2259.403,1092.396,2098.573,1044.671,2107.404,1024.861z"/>
		<path style="fill:#E8945B;" d="M2198.869,773.471c0,0-0.783,10.835-0.807,21.043c-19.268-0.543-29.451-18.12-33.624-27.861
			L2198.869,773.471z"/>
		<path style="fill:#FFB27D;" d="M2205.304,783.136c0,0-45.586,0.752-45.617-27.644c-0.031-28.395-5.937-47.422,23.168-49.103
			c29.104-1.682,34.771,9.148,37.087,18.623C2222.258,734.487,2217.16,782.208,2205.304,783.136z"/>
		<path style="fill:#163560;" d="M2203.616,705.692c0,0-12.481,33.314-31.636,38.24c-19.155,4.926-27.464-0.207-27.464-0.207
			s14.692-11.672,17.742-32.046C2162.259,711.68,2194.202,689.837,2203.616,705.692z"/>
		<path style="fill:#163560;" d="M2200.523,708.398c0,0,9.256,3.46,13.064,10.21c3.726,6.601,6.898,15.344,6.162,26.068
			c0,0,9.402-22.643-1.164-35.452C2207.38,695.642,2200.523,708.398,2200.523,708.398z"/>
		<path style="fill:#EBF3FA;" d="M2195.385,765.519c0,0,3.146,4.14,9.439,3.841c5.068-0.24,7.023-4.638,7.023-4.638
			S2202.535,762.484,2195.385,765.519z"/>
		<path style="fill:#F99746;" d="M2113.612,877.824c0,0,0.172,21.619,1.33,41.204c0.771,12.982,1.964,25.072,3.827,29.373
			c4.675,10.788,9.947,12.543,9.947,12.543l40.787,9.998l14.341,3.509l45.226-13.507c0,0,20.599-57.495,12.327-89.86
			c-8.271-32.365-20.907-54.841-20.907-54.841s-36.904,36.133-84.955-3.064L2113.612,877.824z"/>
		<path style="fill:#ED7D2B;" d="M2114.942,919.028c0.771,12.982,1.964,25.072,3.827,29.373c4.675,10.788,9.947,12.543,9.947,12.543
			l40.787,9.998l17.715-5.207c0,0-59.136-8.962-52.583-59.841L2114.942,919.028z"/>
		<path style="fill:#163560;" d="M2226.193,969.672c0,0,22.396,69.713,23.836,93.446c1.438,23.735-42.813,337.171-44.594,348.108
			c-1.678,10.309-14.479,16.879-14.479,16.879s-5.888,3.474-14.29,1.102c-11.658-3.292-15.344-7.233-15.344-7.233
			s-17.433-223.541-6.644-303.394c10.787-79.854,10.914-148.908,10.914-148.908H2226.193z"/>
		<path style="fill:#17467F;" d="M2131.304,967.594c0,0-34.163,45.838-37.348,76.824c-3.185,30.987-4.997,139.83-11.782,170.038
			s-31.716,88.341-31.716,182.56c0,0,2.591,5.399,10.593,8.276c2.559,0.92,5.987,1.813,9.316,2.576
			c6.598,1.513,13.368-1.713,16.379-7.775c16.854-33.936,70.543-143.386,73.295-166.104c1.949-16.079,18.9-122.491,55.878-184.932
			c8.878-14.991-5.448-74.605-5.448-74.605L2131.304,967.594z"/>
		<path style="fill:#FFFFFF;" d="M2196.397,766.279c0,0,0.789,3.346,9.114,2.83c0,0,6.988-0.432,6.774-4.109
			C2212.286,765,2205.509,762.384,2196.397,766.279z"/>
		<path style="fill:#233862;" d="M2229.771,958.91c0,0-8.992,7.112-26.854,7.472c-21.334,0.43-74.199-5.439-74.199-5.439
			s-2.349,6.564-2.254,13.494c0,0,64.567,16.286,101.977,2.377C2228.441,976.813,2233.267,967.736,2229.771,958.91z"/>
		<g>
			<path style="fill:#336FAA;" d="M2198.303,973.749c0-6.076,4.366-11.018,9.734-11.018s9.736,4.942,9.736,11.018
				c0,6.076-4.368,11.019-9.736,11.019S2198.303,979.825,2198.303,973.749z M2201.529,973.749c0,4.296,2.919,7.792,6.508,7.792
				s6.509-3.496,6.509-7.792s-2.92-7.791-6.509-7.791S2201.529,969.453,2201.529,973.749z"/>
		</g>
		
			<rect x="2051.158" y="1031.113" transform="matrix(-0.9775 -0.2108 0.2108 -0.9775 3935.5381 2539.9495)" style="fill:#D16218;" width="103.941" height="58.257"/>
		<path style="fill:#E27A2D;" d="M2160.071,1042.721c0,0-28.405,23.797-59.975,15.519s-41.632-37.426-41.632-37.426
			L2160.071,1042.721z"/>
		<g>
			<path style="fill:#0C2442;" d="M2140.215,1038.992c0-3.111,2.531-5.644,5.644-5.644s5.645,2.532,5.645,5.644
				c0,3.112-2.532,5.645-5.645,5.645S2140.215,1042.104,2140.215,1038.992z M2142.09,1038.992c0,2.078,1.69,3.77,3.769,3.77
				s3.769-1.691,3.769-3.77c0-2.076-1.69-3.768-3.769-3.768S2142.09,1036.916,2142.09,1038.992z"/>
		</g>
		<path style="fill:#FFB27D;" d="M2063.148,1046.142c0,0-0.041,8.253-1.606,12.234s-6.262,9.289-7.828,9.289
			c-1.565,0,1.436-8.294,0.652-8.128c-0.782,0.166-4.559,13.804-7.299,14.135c-2.739,0.333-5.225-15.296-3.79-21.434
			c1.436-6.137,7.632-13.499,7.632-13.499L2063.148,1046.142z"/>
		<path style="fill:#F99746;" d="M2135.535,813.182c0,0-25.217,3.421-38.791,30.162c-10.488,20.666-30.879,83.69-38.279,104.157
			c-7.082,19.587-3.662,59.431-9.113,89.77c-0.422,2.354,0.876,4.674,3.099,5.555l9.273,3.678c2.001,0.793,4.279,0.021,5.381-1.827
			c8.239-13.837,26.56-65.116,37.842-97.175c13.19-37.476,52.038-64.881,52.038-64.881L2135.535,813.182z"/>
		<g>
			<path style="fill:#0C2442;" d="M2147.715,1034.621c0.06-0.931,5.926-93.625,4.804-145.743
				c-0.589-27.366-4.816-46.644-8.259-57.997c-3.757-12.39-9.366-17.461-9.518-17.701l-1.912,0.565
				c0.142,0.228,15.702,23.64,16.813,75.194c1.118,51.996-4.739,144.569-4.799,145.498L2147.715,1034.621z"/>
		</g>
	</g>
</g>
</svg>
